<svg width="37" height="36" viewBox="0 0 37 36" fill="none" xmlns="http://www.w3.org/2000/svg">
<path d="M18.5 0.125C8.64383 0.125 0.625 8.14383 0.625 18C0.625 27.8562 8.64383 35.875 18.5 35.875C28.3562 35.875 36.375 27.8562 36.375 18C36.375 8.14383 28.3562 0.125 18.5 0.125ZM30.7891 26.25H26.903C26.7826 26.2497 26.6643 26.2178 26.5601 26.1575C26.4559 26.0972 26.3693 26.0105 26.3091 25.9062L24.9221 23.5275C24.8308 23.372 24.8043 23.1868 24.8482 23.0119L26.1252 17.8625C26.1509 17.7587 26.2003 17.6624 26.2697 17.5811C26.339 17.4998 26.4264 17.4358 26.5248 17.3941L28.9397 16.3715C29.0577 16.3214 29.1873 16.3054 29.314 16.3251C29.4406 16.3449 29.5592 16.3996 29.6564 16.4832L33.234 19.5615C33.3222 19.6374 33.3896 19.7345 33.4301 19.8436C33.4705 19.9527 33.4826 20.0703 33.4652 20.1854C33.1689 22.2181 32.4587 24.1684 31.3786 25.9157C31.3176 26.0176 31.2312 26.102 31.1279 26.1605C31.0246 26.2191 30.9078 26.2499 30.7891 26.25ZM8.06031 16.3784L10.4752 17.401C10.5736 17.4427 10.661 17.5067 10.7303 17.588C10.7997 17.6693 10.8491 17.7656 10.8748 17.8694L12.1518 23.0187C12.1957 23.1937 12.1692 23.3788 12.0779 23.5344L10.6909 25.9062C10.6307 26.0105 10.5441 26.0972 10.4399 26.1575C10.3357 26.2178 10.2174 26.2497 10.097 26.25H6.21094C6.0934 26.2501 5.97781 26.22 5.87521 26.1627C5.7726 26.1054 5.6864 26.0227 5.62484 25.9226C4.54473 24.1753 3.83457 22.225 3.53828 20.1923C3.52086 20.0772 3.53293 19.9596 3.57336 19.8505C3.6138 19.7414 3.68127 19.6443 3.76945 19.5684L7.34703 16.4901C7.44387 16.4071 7.56187 16.3528 7.68783 16.3331C7.81379 16.3133 7.94275 16.329 8.06031 16.3784ZM30.1411 8.88117L28.5882 13.2966C28.557 13.3869 28.5073 13.4696 28.4424 13.5396C28.3774 13.6096 28.2986 13.6653 28.2109 13.7031L25.6689 14.7799C25.5523 14.8293 25.4242 14.8454 25.299 14.8266C25.1737 14.8078 25.0561 14.7548 24.9591 14.6734L20.1242 10.618C20.047 10.5541 19.9846 10.474 19.9416 10.3835C19.8985 10.2929 19.8758 10.194 19.875 10.0938V7.20797C19.8751 7.0949 19.903 6.98359 19.9564 6.88391C20.0098 6.78422 20.0869 6.69924 20.1809 6.63648L23.8616 4.18383C23.9577 4.11971 24.0684 4.08083 24.1834 4.07077C24.2985 4.0607 24.4142 4.07978 24.5199 4.12625C26.6378 5.04991 28.5173 6.44419 30.0156 8.20312C30.0944 8.29508 30.1475 8.40622 30.1695 8.52528C30.1915 8.64434 30.1817 8.76711 30.1411 8.88117ZM13.1375 4.18383L16.8191 6.63648C16.9131 6.69924 16.9902 6.78422 17.0436 6.88391C17.097 6.98359 17.1249 7.0949 17.125 7.20797V10.0938C17.125 10.1942 17.103 10.2934 17.0605 10.3844C17.0181 10.4754 16.9562 10.556 16.8792 10.6205L12.0444 14.6759C11.9474 14.7574 11.8297 14.8104 11.7045 14.8292C11.5792 14.848 11.4512 14.8319 11.3345 14.7825L8.78906 13.7031C8.70085 13.6658 8.62141 13.6104 8.55585 13.5405C8.49029 13.4707 8.44005 13.3879 8.40836 13.2975L6.85547 8.88203C6.81511 8.76756 6.80578 8.64445 6.82842 8.52521C6.85107 8.40596 6.90487 8.29484 6.98438 8.20312C8.48351 6.44241 10.3646 5.0469 12.4844 4.12281C12.5897 4.07776 12.7046 4.05975 12.8187 4.0704C12.9327 4.08106 13.0423 4.12005 13.1375 4.18383ZM14.6251 32.3249L12.9295 28.0547C12.8908 27.9576 12.8746 27.853 12.8824 27.7487C12.8901 27.6445 12.9215 27.5434 12.9742 27.4531L14.2779 25.2188C14.3381 25.1145 14.4246 25.0278 14.5289 24.9675C14.6331 24.9072 14.7513 24.8753 14.8717 24.875H22.1283C22.2487 24.8753 22.3669 24.9072 22.4711 24.9675C22.5754 25.0278 22.6619 25.1145 22.7221 25.2188L24.0266 27.4531C24.0795 27.5433 24.111 27.6444 24.1189 27.7486C24.1268 27.8529 24.1108 27.9576 24.0722 28.0547L22.3887 32.3232C22.3475 32.4276 22.2814 32.5203 22.1962 32.5932C22.1109 32.6662 22.0092 32.7172 21.8997 32.7417C19.6657 33.2544 17.3446 33.2544 15.1106 32.7417C15.002 32.7168 14.901 32.6659 14.8164 32.5933C14.7318 32.5206 14.6662 32.4286 14.6251 32.3249Z" fill="white"/>
</svg>
