<svg width="45" height="35" viewBox="0 0 45 35" fill="none" xmlns="http://www.w3.org/2000/svg">
<path d="M14.7217 16.7583C12.255 17.4727 10.6002 19.5747 10.7665 21.8237C11.5503 20.9542 12.7472 20.2036 14.1972 19.7101L14.7217 16.7583ZM7.08703 20.166L4.90559 7.89482C4.88565 7.78408 4.92484 7.71572 4.92209 7.71367C8.89309 5.52207 13.3866 4.36338 17.9165 4.36338C18.0272 4.36338 18.1386 4.375 18.25 4.37637C19.209 3.45557 20.4314 2.81572 21.7968 2.59902C23.0955 2.39258 24.4127 2.28799 25.7279 2.23535C25.0411 1.28174 24.0449 0.579004 22.8562 0.389648C21.2124 0.129199 19.5603 0 17.9158 0C12.6455 0 7.44521 1.32754 2.78259 3.90059C1.1209 4.81797 0.230589 6.73203 0.572276 8.65293L2.75371 20.9241C3.73203 26.4284 12.1264 30.6366 16.8097 30.6366C17.0565 30.6366 17.2737 30.6052 17.4978 30.5819C16.5683 29.4144 15.5082 27.8147 14.7822 25.9622C11.509 25.0749 7.49059 22.4335 7.08703 20.166ZM13.7936 10.7693C13.7434 10.4877 13.6403 10.2313 13.5138 9.99004C12.9466 10.5991 12.0927 11.0667 11.0855 11.2424C10.0783 11.4188 9.11446 11.2697 8.37128 10.889C8.33553 11.1583 8.32728 11.4345 8.37746 11.7161C8.64146 13.1995 10.0673 14.19 11.5633 13.9289C13.0587 13.6678 14.0576 12.2527 13.7936 10.7693ZM42.2176 8.26465C36.1002 4.88906 29.0568 3.65654 22.144 4.75439C20.2664 5.05244 18.7697 6.54951 18.4287 8.47041L16.2473 20.7416C15.1892 26.6923 22.7978 34.1585 27.1311 34.9159C31.4644 35.674 41.1884 31.2389 42.2465 25.2882L44.4279 13.017C44.7696 11.0954 43.8793 9.18135 42.2176 8.26465ZM23.4323 14.8818C23.6963 13.3984 25.1222 12.4079 26.6182 12.6697C28.1142 12.9315 29.1125 14.3459 28.8492 15.8293C28.799 16.1109 28.6958 16.3673 28.5693 16.6086C28.0022 15.9995 27.1483 15.5319 26.1411 15.3562C25.1339 15.1799 24.17 15.3289 23.4268 15.7097C23.3904 15.4396 23.3822 15.1635 23.4323 14.8818ZM28.2772 28.4689C24.4492 27.7997 21.8477 24.4173 22.1557 20.7512C23.5719 22.4971 26.0201 23.9073 28.9956 24.4275C31.9711 24.9478 34.7582 24.4528 36.6908 23.2928C35.7159 26.8434 32.1045 29.1382 28.2772 28.4689ZM37.2353 18.1234C36.6681 17.5144 35.8135 17.0468 34.8063 16.8711C33.7992 16.6947 32.8353 16.8438 32.0921 17.2245C32.0563 16.9552 32.0481 16.679 32.0983 16.3974C32.3623 14.914 33.7882 13.9234 35.2842 14.1846C36.7795 14.4464 37.7784 15.8607 37.5151 17.3441C37.4649 17.6265 37.3618 17.8828 37.2353 18.1234Z" fill="white"/>
</svg>
