<svg width="156" height="73" viewBox="0 0 156 73" fill="none" xmlns="http://www.w3.org/2000/svg">
<g id="Layer_1" clip-path="url(#clip0_117_161)">
<path id="Vector" d="M21.7205 0L16.8827 4.86687L16.8657 4.88398C18.3912 6.40002 19.3387 8.50537 19.3387 10.8331C19.3387 15.4512 15.6168 19.1938 11.0279 19.1938C8.68324 19.1938 6.5673 18.2158 5.05569 16.6438L0 21.677C0 21.677 12.3154 35.7552 16.3139 35.7552H60.5184C60.5184 35.7552 52.5229 34.0666 21.7205 0ZM14.1331 33.866L12.7358 32.4603L15.6679 29.5107L17.0651 30.9163L14.1331 33.866ZM18.3526 29.6195L16.9553 28.2139L19.8874 25.2642L21.2846 26.6698L18.3526 29.6195ZM22.6231 25.3248L21.2259 23.9192L24.1579 20.9695L25.5551 22.3752L22.6231 25.3248ZM26.7452 21.1779L25.348 19.7723L28.28 16.8226L29.6773 18.2282L26.7452 21.1779ZM31.0884 16.807L29.6912 15.4014L32.6232 12.4517L34.0204 13.8574L31.0884 16.807Z" fill="#F43293"/>
<path id="Vector_2" opacity="0.1" d="M21.7205 73L16.8827 68.1331L16.8657 68.116C18.3912 66.6 19.3387 64.4946 19.3387 62.1669C19.3387 57.5488 15.6168 53.8062 11.0279 53.8062C8.68324 53.8062 6.5673 54.7842 5.05569 56.3562L0 51.3245C0 51.3245 12.3154 37.2464 16.3139 37.2464H60.5184C60.5184 37.2464 52.5214 38.935 21.7189 73.0016L21.7205 73ZM14.1331 39.134L12.7358 40.5397L15.6679 43.4893L17.0651 42.0837L14.1331 39.134ZM18.3526 43.3805L16.9553 44.7861L19.8874 47.7358L21.2846 46.3302L18.3526 43.3805ZM22.6231 47.6767L21.2259 49.0823L24.1579 52.032L25.5551 50.6264L22.6231 47.6767ZM26.7452 51.8221L25.348 53.2277L28.28 56.1774L29.6773 54.7718L26.7452 51.8221ZM31.0884 56.193L29.6912 57.5986L32.6232 60.5483L34.0204 59.1426L31.0884 56.193Z" fill="black"/>
<path id="Vector_3" d="M156 35.7552H8.83626V37.2448H156V35.7552Z" fill="black"/>
<g id="Group">
<path id="Vector_4" d="M60.6729 21.3038V18.7849H69.4458V21.3038H66.3113V33.2829H63.8074V21.3038H60.6729Z" fill="black"/>
<path id="Vector_5" d="M70.5216 33.2829V18.7849H73.0255L73.044 22.6022C73.4134 22.3954 73.8091 22.2337 74.2295 22.1155C74.6499 21.9973 75.0904 21.9383 75.5525 21.9383C76.2403 21.9383 76.8879 22.0704 77.4984 22.3332C78.109 22.596 78.6422 22.9567 79.0982 23.4154C79.5541 23.8741 79.9142 24.4075 80.1754 25.0154C80.4367 25.6234 80.568 26.2733 80.568 26.9637V33.286H78.0641V26.9637C78.0641 26.6232 77.9977 26.3013 77.8632 25.9981C77.7303 25.6949 77.5479 25.429 77.3161 25.202C77.0842 24.975 76.8184 24.7946 76.5154 24.6609C76.2125 24.5272 75.8864 24.4603 75.5371 24.4603C75.1878 24.4603 74.8616 24.5272 74.5587 24.6609C74.2558 24.7946 73.9915 24.975 73.7658 25.202C73.5401 25.429 73.3593 25.6949 73.2264 25.9981C73.0935 26.3029 73.027 26.6248 73.027 26.9637V33.286H70.5231L70.5216 33.2829Z" fill="black"/>
<path id="Vector_6" d="M83.0132 21.9367H85.5171V33.2813H83.0132V21.9367ZM85.5171 18.7678V21.2867H83.0286V18.7678H85.5171Z" fill="black"/>
<path id="Vector_7" d="M88.4336 25.3839C88.7288 24.6936 89.1307 24.0934 89.6407 23.5833C90.1493 23.0733 90.7474 22.6722 91.4337 22.3783C92.1199 22.0844 92.8525 21.9382 93.63 21.9382V24.4572C93.2003 24.4572 92.7953 24.5396 92.4167 24.7044C92.038 24.8693 91.7041 25.0932 91.4182 25.3762C91.1307 25.6592 90.9066 25.9919 90.7428 26.3729C90.5789 26.7538 90.497 27.1612 90.497 27.5935V33.2813H87.9931V27.5935C87.9931 26.8098 88.14 26.0743 88.4352 25.3824L88.4336 25.3839Z" fill="black"/>
<path id="Vector_8" d="M100.06 33.2829C99.2823 33.2829 98.5512 33.1336 97.865 32.8351C97.1802 32.5365 96.5806 32.1291 96.069 31.6145C95.5574 31.0998 95.1539 30.4996 94.8572 29.8139C94.5604 29.1282 94.4121 28.3942 94.4121 27.6106C94.4121 26.8269 94.5604 26.0914 94.8572 25.401C95.1539 24.7107 95.5574 24.1105 96.069 23.6005C96.5806 23.0904 97.1787 22.6862 97.865 22.3876C98.5497 22.0891 99.2823 21.9398 100.06 21.9398C100.387 21.9398 100.701 21.9631 101.004 22.0098C101.305 22.0564 101.605 22.1357 101.902 22.2492V25.0621C101.647 24.8708 101.363 24.7231 101.05 24.6174C100.738 24.5116 100.409 24.4588 100.061 24.4588C99.6316 24.4588 99.2251 24.5412 98.8418 24.706C98.4585 24.8708 98.1231 25.0963 97.8371 25.3839C97.5512 25.6716 97.3255 26.009 97.1617 26.3931C96.9979 26.7771 96.9159 27.1876 96.9159 27.6183C96.9159 28.0491 96.9979 28.4564 97.1617 28.8358C97.3255 29.2168 97.5512 29.548 97.8371 29.831C98.1246 30.114 98.46 30.3394 98.8433 30.5089C99.2266 30.6784 99.6347 30.7639 100.064 30.7639C100.494 30.7639 100.896 30.6784 101.27 30.5089C101.644 30.3394 101.975 30.1124 102.261 29.8294C102.547 29.5464 102.772 29.2137 102.936 28.8327C103.1 28.4518 103.182 28.0444 103.182 27.6121V18.7864H105.686V27.6121C105.686 28.3958 105.537 29.1297 105.241 29.8154C104.944 30.5011 104.54 31.1013 104.029 31.616C103.517 32.1307 102.922 32.5381 102.241 32.8366C101.561 33.1352 100.831 33.2844 100.055 33.2844L100.06 33.2829Z" fill="black"/>
<path id="Vector_9" d="M114.063 33.2829V18.7849H120.531C121.085 18.7849 121.607 18.8906 122.099 19.1021C122.59 19.3136 123.02 19.6043 123.389 19.976C123.759 20.3476 124.048 20.7798 124.258 21.2743C124.468 21.7688 124.573 22.2943 124.573 22.851C124.573 23.3143 124.499 23.7606 124.351 24.1882C124.202 24.6158 123.995 25.0045 123.728 25.3559C123.462 25.7058 123.142 26.0075 122.768 26.2594C122.394 26.5112 121.981 26.6947 121.531 26.8082C121.613 27.0042 121.718 27.2467 121.847 27.5344C121.975 27.8236 122.112 28.1377 122.261 28.4767C122.409 28.8172 122.562 29.1717 122.721 29.5433C122.881 29.9149 123.037 30.2757 123.19 30.6255C123.548 31.4605 123.932 32.3468 124.343 33.2844H121.623C121.007 31.8617 120.44 30.554 119.918 29.3583C119.692 28.8529 119.466 28.3429 119.242 27.8283C119.017 27.3136 118.806 26.8316 118.612 26.3837C118.417 25.9359 118.242 25.5394 118.089 25.1942C117.936 24.849 117.823 24.5894 117.751 24.4137H120.531C120.746 24.4137 120.946 24.3732 121.131 24.2893C121.315 24.2069 121.477 24.0965 121.615 23.9565C121.754 23.8181 121.864 23.6533 121.946 23.4621C122.027 23.2708 122.068 23.0671 122.068 22.851C122.068 22.6349 122.024 22.428 121.936 22.2321C121.848 22.0362 121.734 21.8683 121.59 21.7299C121.446 21.5915 121.275 21.4827 121.074 21.4049C120.873 21.3272 120.666 21.2945 120.449 21.3038H116.567V33.2829H114.063Z" fill="black"/>
<path id="Vector_10" d="M130.672 33.2829C129.893 33.2829 129.164 33.1336 128.482 32.8351C127.8 32.5365 127.204 32.1323 126.692 31.6222C126.181 31.1122 125.776 30.512 125.479 29.8217C125.182 29.1313 125.034 28.3942 125.034 27.6106C125.034 26.8269 125.182 26.0914 125.479 25.401C125.776 24.7107 126.181 24.1105 126.692 23.6005C127.204 23.0904 127.8 22.6862 128.482 22.3876C129.164 22.0891 129.893 21.9398 130.672 21.9398C131.451 21.9398 132.182 22.0891 132.868 22.3876C133.555 22.6862 134.151 23.0904 134.658 23.6005C135.165 24.1105 135.567 24.7107 135.864 25.401C136.161 26.0914 136.309 26.8284 136.309 27.6106C136.309 28.3927 136.161 29.1313 135.864 29.8217C135.567 30.512 135.165 31.1122 134.658 31.6222C134.151 32.1323 133.555 32.5365 132.868 32.8351C132.182 33.1336 131.45 33.2829 130.672 33.2829ZM127.538 27.609C127.538 28.0413 127.619 28.4487 127.783 28.8296C127.947 29.2106 128.171 29.5464 128.453 29.8341C128.735 30.1233 129.066 30.3488 129.446 30.5136C129.827 30.6784 130.232 30.7608 130.663 30.7608C131.094 30.7608 131.499 30.6784 131.879 30.5136C132.259 30.3488 132.593 30.1218 132.881 29.8341C133.168 29.5464 133.394 29.2106 133.558 28.8296C133.722 28.4487 133.803 28.0413 133.803 27.609C133.803 27.1767 133.722 26.7694 133.558 26.3884C133.394 26.0075 133.168 25.6716 132.881 25.3839C132.593 25.0963 132.259 24.8693 131.879 24.7044C131.499 24.5396 131.094 24.4572 130.663 24.4572C130.232 24.4572 129.825 24.5396 129.446 24.7044C129.066 24.8693 128.735 25.0963 128.453 25.3839C128.17 25.6731 127.947 26.0075 127.783 26.3884C127.619 26.7694 127.538 27.1767 127.538 27.609ZM128.967 27.609C128.967 27.3727 129.014 27.1488 129.105 26.9373C129.198 26.7258 129.32 26.5439 129.474 26.3884C129.629 26.2329 129.807 26.1101 130.012 26.0168C130.216 25.9235 130.437 25.8784 130.672 25.8784C130.907 25.8784 131.13 25.925 131.34 26.0168C131.55 26.1101 131.731 26.2329 131.885 26.3884C132.04 26.5439 132.162 26.7258 132.255 26.9373C132.348 27.1488 132.392 27.3727 132.392 27.609C132.392 27.8454 132.346 28.0677 132.255 28.273C132.162 28.4798 132.04 28.6601 131.885 28.8141C131.731 28.968 131.55 29.0924 131.34 29.1857C131.13 29.279 130.907 29.3241 130.672 29.3241C130.437 29.3241 130.216 29.2774 130.012 29.1857C129.807 29.0924 129.627 28.9696 129.474 28.8141C129.321 28.6586 129.198 28.4798 129.105 28.273C129.012 28.0677 128.967 27.8454 128.967 27.609Z" fill="black"/>
<path id="Vector_11" d="M142.227 33.2829C141.664 33.2829 141.136 33.174 140.644 32.9579C140.153 32.7418 139.723 32.4479 139.354 32.0763C138.984 31.7046 138.694 31.2708 138.477 30.7701C138.263 30.271 138.154 29.7377 138.154 29.1701V21.9367H140.658V29.1701C140.658 29.3863 140.7 29.59 140.782 29.7812C140.864 29.9725 140.975 30.142 141.114 30.2912C141.253 30.4405 141.417 30.5571 141.609 30.6395C141.799 30.7219 142.003 30.7639 142.219 30.7639C142.436 30.7639 142.638 30.7235 142.828 30.6395C143.018 30.5571 143.185 30.4405 143.331 30.2912C143.474 30.142 143.589 29.9725 143.671 29.7812C143.753 29.59 143.794 29.3878 143.794 29.1701V21.9367H146.298V29.1701C146.298 29.3863 146.338 29.59 146.422 29.7812C146.504 29.9725 146.615 30.142 146.754 30.2912C146.893 30.4405 147.057 30.5571 147.249 30.6395C147.439 30.7219 147.643 30.7639 147.859 30.7639C148.076 30.7639 148.278 30.7235 148.47 30.6395C148.66 30.5571 148.83 30.4405 148.98 30.2912C149.13 30.142 149.244 29.9725 149.328 29.7812C149.41 29.59 149.451 29.3878 149.451 29.1701V21.9367H151.955V29.1857C151.955 29.7532 151.847 30.2835 151.632 30.7779C151.417 31.2724 151.125 31.7046 150.756 32.0763C150.386 32.4479 149.954 32.7402 149.457 32.9579C148.961 33.174 148.431 33.2829 147.867 33.2829C147.303 33.2829 146.796 33.1803 146.315 32.9735C145.833 32.7682 145.414 32.4837 145.056 32.1229C144.686 32.4837 144.261 32.7667 143.78 32.9735C143.298 33.1803 142.782 33.2829 142.229 33.2829H142.227Z" fill="black"/>
</g>
<g id="Group_2">
<path id="Vector_12" d="M61.3669 45.4578C61.2479 45.4578 61.1567 45.4065 61.0918 45.3039C61.0284 45.2013 61.0207 45.0924 61.0733 44.9758L62.8693 40.6625C62.9326 40.5132 63.0377 40.437 63.183 40.437C63.336 40.437 63.4411 40.5117 63.4968 40.6625L65.299 44.9883C65.3453 45.108 65.3376 45.2168 65.2773 45.3132C65.2155 45.4096 65.1228 45.4578 64.9991 45.4578C64.9357 45.4578 64.8739 45.4392 64.8167 45.4034C64.7595 45.3677 64.7178 45.3163 64.6915 45.2526L63.1073 41.2938H63.2866L61.676 45.2526C61.6467 45.321 61.6034 45.3723 61.5447 45.4065C61.4875 45.4407 61.4287 45.4578 61.3685 45.4578H61.3669ZM61.7069 44.3523L61.962 43.8003H64.4659L64.7209 44.3523H61.7054H61.7069Z" fill="#7F777B"/>
<path id="Vector_13" d="M66.3824 45.4578C66.2881 45.4578 66.2109 45.4252 66.149 45.3614C66.0872 45.2977 66.0563 45.2184 66.0563 45.1235V40.7729C66.0563 40.678 66.0887 40.5987 66.1521 40.535C66.2155 40.4712 66.2928 40.4386 66.3824 40.4386C66.4767 40.4386 66.5555 40.4712 66.6189 40.535C66.6823 40.5987 66.7147 40.678 66.7147 40.7729V44.7892H69.027C69.1212 44.7892 69.2001 44.8219 69.2634 44.8856C69.3268 44.9494 69.3593 45.0287 69.3593 45.1235C69.3593 45.2184 69.3268 45.2977 69.2634 45.3614C69.2001 45.4252 69.1212 45.4578 69.027 45.4578H66.3824Z" fill="#7F777B"/>
<path id="Vector_14" d="M70.4845 45.4578C70.3902 45.4578 70.3129 45.4252 70.2511 45.3614C70.1893 45.2977 70.1584 45.2184 70.1584 45.1235V40.7729C70.1584 40.678 70.1908 40.5987 70.2542 40.535C70.3176 40.4712 70.3948 40.4386 70.4845 40.4386C70.5788 40.4386 70.6576 40.4712 70.721 40.535C70.7843 40.5987 70.8168 40.678 70.8168 40.7729V44.7892H73.129C73.2233 44.7892 73.3021 44.8219 73.3655 44.8856C73.4289 44.9494 73.4613 45.0287 73.4613 45.1235C73.4613 45.2184 73.4289 45.2977 73.3655 45.3614C73.3021 45.4252 73.2233 45.4578 73.129 45.4578H70.4845Z" fill="#7F777B"/>
<path id="Vector_15" d="M75.8957 41.0559C75.806 41.0559 75.7334 41.0263 75.6746 40.9688C75.6159 40.9113 75.5881 40.8366 75.5881 40.7465C75.5881 40.6563 75.6174 40.5832 75.6746 40.5241C75.7318 40.4666 75.806 40.437 75.8957 40.437H79.313C79.4026 40.437 79.4753 40.4666 79.534 40.5241C79.5912 40.5816 79.6206 40.6563 79.6206 40.7465C79.6206 40.8366 79.5912 40.9097 79.534 40.9688C79.4768 41.0279 79.4026 41.0559 79.313 41.0559H75.8957ZM77.6082 45.4578C77.5139 45.4578 77.4351 45.4252 77.3717 45.3614C77.3083 45.2977 77.2759 45.2184 77.2759 45.1235V40.4386H77.9405V45.1235C77.9405 45.2184 77.908 45.2977 77.8447 45.3614C77.7813 45.4252 77.7025 45.4578 77.6082 45.4578Z" fill="#7F777B"/>
<path id="Vector_16" d="M80.687 45.4578C80.5928 45.4578 80.5139 45.4252 80.4506 45.3614C80.3872 45.2977 80.3547 45.2184 80.3547 45.1235V40.7729C80.3547 40.6749 80.3872 40.5941 80.4506 40.5319C80.5139 40.4697 80.5928 40.4386 80.687 40.4386C80.7813 40.4386 80.8648 40.4697 80.9266 40.5319C80.9884 40.5941 81.0193 40.6749 81.0193 40.7729V45.1235C81.0193 45.2184 80.9884 45.2977 80.9266 45.3614C80.8648 45.4252 80.7844 45.4578 80.687 45.4578Z" fill="#7F777B"/>
<path id="Vector_17" d="M84.5325 45.5232C84.1879 45.5232 83.8648 45.4578 83.565 45.3272C83.2651 45.1966 83.0024 45.0147 82.7798 44.7815C82.5557 44.5482 82.381 44.2746 82.2558 43.962C82.1307 43.6495 82.0673 43.3105 82.0673 42.9467C82.0673 42.5828 82.1307 42.2516 82.2558 41.9406C82.381 41.6297 82.5557 41.3575 82.7798 41.1243C83.0039 40.8911 83.2636 40.7076 83.5619 40.5754C83.8602 40.4433 84.1832 40.3764 84.5325 40.3764C84.8602 40.3764 85.143 40.4199 85.3795 40.5055C85.616 40.591 85.854 40.7325 86.0921 40.9299C86.1261 40.9564 86.1523 40.9828 86.1724 41.0108C86.1925 41.0388 86.2049 41.0668 86.2111 41.0948C86.2172 41.1228 86.2203 41.1554 86.2203 41.1943C86.2203 41.2751 86.191 41.3436 86.1338 41.3964C86.0766 41.4493 86.007 41.4804 85.9267 41.4866C85.8463 41.4928 85.7675 41.4664 85.6902 41.4057C85.5325 41.2689 85.3702 41.1632 85.2018 41.0901C85.0333 41.017 84.8107 40.9813 84.5341 40.9813C84.2821 40.9813 84.0457 41.0326 83.8246 41.1352C83.6036 41.2378 83.4089 41.3793 83.2404 41.5597C83.0719 41.7401 82.9406 41.9484 82.8478 42.1863C82.7535 42.4242 82.7072 42.6777 82.7072 42.9482C82.7072 43.2188 82.7535 43.4784 82.8478 43.7163C82.9421 43.9542 83.0719 44.1626 83.2404 44.343C83.4089 44.5233 83.6036 44.6633 83.8246 44.7644C84.0457 44.8654 84.2821 44.9152 84.5341 44.9152C84.752 44.9152 84.9576 44.8779 85.1508 44.8032C85.344 44.7286 85.531 44.6244 85.7103 44.4922C85.7876 44.4363 85.8618 44.4114 85.9375 44.4176C86.0117 44.4238 86.075 44.4534 86.1261 44.5078C86.1771 44.5607 86.2033 44.6353 86.2033 44.7301C86.2033 44.7737 86.1941 44.8141 86.1771 44.8561C86.1601 44.8965 86.1338 44.9338 86.0998 44.9681C85.8695 45.1531 85.6237 45.2915 85.3625 45.3863C85.0998 45.4812 84.8246 45.5278 84.5356 45.5278L84.5325 45.5232Z" fill="#7F777B"/>
<path id="Vector_18" d="M87.5928 45.4578C87.5032 45.4578 87.4259 45.4252 87.3594 45.3614C87.293 45.2977 87.2605 45.2184 87.2605 45.1235V40.7729C87.2605 40.678 87.293 40.5987 87.3594 40.535C87.4259 40.4712 87.5032 40.4386 87.5928 40.4386C87.6825 40.4386 87.7659 40.4712 87.8293 40.535C87.8927 40.5987 87.9251 40.678 87.9251 40.7729V42.701L90.0395 40.5739C90.0905 40.5226 90.1369 40.4868 90.1802 40.4681C90.2235 40.4495 90.2667 40.4386 90.3147 40.4386C90.4213 40.4386 90.497 40.4712 90.545 40.535C90.5913 40.5987 90.6083 40.6749 90.596 40.7636C90.5836 40.8506 90.5419 40.9315 90.4738 41.0046L88.8448 42.6497L90.5063 44.9245C90.5573 44.9976 90.5789 45.0753 90.5697 45.1593C90.5604 45.2433 90.531 45.3132 90.48 45.3708C90.429 45.4283 90.361 45.4578 90.276 45.4578C90.157 45.4578 90.0658 45.4112 90.0009 45.3163L88.3842 43.1115L87.9236 43.5748V45.1235C87.9236 45.2184 87.8911 45.2977 87.8278 45.3614C87.7644 45.4252 87.6856 45.4578 87.5913 45.4578H87.5928Z" fill="#7F777B"/>
<path id="Vector_19" d="M91.8541 45.4578C91.7598 45.4578 91.681 45.4252 91.6176 45.3614C91.5542 45.2977 91.5218 45.2184 91.5218 45.1235V40.7729C91.5218 40.6749 91.5542 40.5941 91.6176 40.5319C91.681 40.4697 91.7598 40.4386 91.8541 40.4386H94.7413C94.8386 40.4386 94.9175 40.4681 94.9778 40.5257C95.038 40.5832 95.0674 40.6594 95.0674 40.7542C95.0674 40.8491 95.038 40.9175 94.9778 40.9735C94.9175 41.0295 94.8386 41.0574 94.7413 41.0574H92.1864V42.6186H94.0195C94.1168 42.6186 94.1957 42.6481 94.256 42.7057C94.3162 42.7632 94.3456 42.8378 94.3456 42.928C94.3456 43.0182 94.3162 43.0913 94.256 43.1504C94.1957 43.2079 94.1168 43.2374 94.0195 43.2374H92.1864V44.8437H94.7413C94.8386 44.8437 94.9175 44.8716 94.9778 44.9276C95.038 44.9836 95.0674 45.0567 95.0674 45.1469C95.0674 45.237 95.038 45.3179 94.9778 45.3754C94.9175 45.433 94.8386 45.4625 94.7413 45.4625H91.8541V45.4578Z" fill="#7F777B"/>
<path id="Vector_20" d="M95.7583 41.0559C95.6686 41.0559 95.596 41.0263 95.5373 40.9688C95.4785 40.9113 95.4507 40.8366 95.4507 40.7465C95.4507 40.6563 95.4801 40.5832 95.5373 40.5241C95.5945 40.4666 95.6686 40.437 95.7583 40.437H99.1756C99.2653 40.437 99.3379 40.4666 99.3967 40.5241C99.4538 40.5816 99.4832 40.6563 99.4832 40.7465C99.4832 40.8366 99.4538 40.9097 99.3967 40.9688C99.3395 41.0279 99.2653 41.0559 99.1756 41.0559H95.7583ZM97.4708 45.4578C97.3765 45.4578 97.2977 45.4252 97.2343 45.3614C97.171 45.2977 97.1385 45.2184 97.1385 45.1235V40.4386H97.8031V45.1235C97.8031 45.2184 97.7707 45.2977 97.7073 45.3614C97.6439 45.4252 97.5651 45.4578 97.4708 45.4578Z" fill="#7F777B"/>
<path id="Vector_21" d="M104.397 45.5232C104.021 45.5232 103.68 45.4594 103.367 45.3335C103.055 45.2075 102.789 45.0287 102.565 44.8001C102.341 44.5715 102.168 44.2994 102.044 43.9838C101.921 43.6681 101.859 43.323 101.859 42.9451C101.859 42.5673 101.921 42.2236 102.044 41.9111C102.168 41.5986 102.341 41.328 102.565 41.0979C102.789 40.8693 103.057 40.6905 103.367 40.5645C103.678 40.4386 104.021 40.3748 104.397 40.3748C104.772 40.3748 105.114 40.4386 105.421 40.5645C105.731 40.6905 105.998 40.8693 106.224 41.0979C106.449 41.3264 106.624 41.5986 106.748 41.9111C106.871 42.2236 106.933 42.5688 106.933 42.9451C106.933 43.3214 106.871 43.6681 106.748 43.9838C106.624 44.2994 106.449 44.5715 106.224 44.8001C105.998 45.0287 105.731 45.2075 105.421 45.3335C105.112 45.4594 104.771 45.5232 104.397 45.5232ZM104.397 44.9183C104.673 44.9183 104.928 44.8685 105.16 44.7675C105.392 44.6664 105.593 44.528 105.765 44.3492C105.935 44.1719 106.066 43.962 106.157 43.7226C106.248 43.4831 106.295 43.2234 106.295 42.9451C106.295 42.6668 106.248 42.4071 106.157 42.1677C106.066 41.9282 105.935 41.7183 105.765 41.541C105.595 41.3638 105.394 41.2254 105.16 41.1259C104.928 41.0279 104.673 40.9781 104.397 40.9781C104.12 40.9781 103.865 41.0279 103.633 41.1259C103.401 41.2238 103.2 41.3622 103.032 41.541C102.863 41.7183 102.732 41.9282 102.639 42.1677C102.545 42.4071 102.499 42.6668 102.499 42.9451C102.499 43.2234 102.545 43.4831 102.639 43.7226C102.734 43.962 102.863 44.1719 103.032 44.3492C103.2 44.5265 103.4 44.6664 103.633 44.7675C103.865 44.8685 104.12 44.9183 104.397 44.9183Z" fill="#7F777B"/>
<path id="Vector_22" d="M108.299 45.4578C108.205 45.4578 108.128 45.4252 108.066 45.3614C108.004 45.2977 107.973 45.2184 107.973 45.1235V40.7729C107.973 40.6749 108.004 40.5941 108.066 40.5319C108.128 40.4697 108.205 40.4386 108.299 40.4386C108.401 40.4386 108.486 40.479 108.554 40.5614L111.34 44.2885V40.7729C111.34 40.6749 111.372 40.5941 111.435 40.5319C111.499 40.4697 111.578 40.4386 111.672 40.4386C111.766 40.4386 111.848 40.4697 111.908 40.5319C111.969 40.5941 111.998 40.6749 111.998 40.7729V45.1235C111.998 45.2184 111.969 45.2977 111.908 45.3614C111.848 45.4252 111.769 45.4578 111.672 45.4578C111.629 45.4578 111.584 45.4485 111.534 45.4283C111.485 45.4096 111.446 45.3801 111.417 45.3412L108.632 41.6141V45.1235C108.632 45.2184 108.601 45.2977 108.539 45.3614C108.477 45.4252 108.397 45.4578 108.299 45.4578Z" fill="#7F777B"/>
<path id="Vector_23" d="M113.609 45.4578C113.514 45.4578 113.435 45.4252 113.372 45.3614C113.309 45.2977 113.276 45.2184 113.276 45.1235V40.7729C113.276 40.6749 113.309 40.5941 113.372 40.5319C113.435 40.4697 113.514 40.4386 113.609 40.4386H116.496C116.593 40.4386 116.672 40.4681 116.732 40.5257C116.793 40.5832 116.822 40.6594 116.822 40.7542C116.822 40.8491 116.793 40.9175 116.732 40.9735C116.672 41.0295 116.593 41.0574 116.496 41.0574H113.941V42.6186H115.774C115.871 42.6186 115.95 42.6481 116.01 42.7057C116.071 42.7632 116.1 42.8378 116.1 42.928C116.1 43.0182 116.071 43.0913 116.01 43.1504C115.95 43.2079 115.871 43.2374 115.774 43.2374H113.941V44.8437H116.496C116.593 44.8437 116.672 44.8716 116.732 44.9276C116.793 44.9836 116.822 45.0567 116.822 45.1469C116.822 45.237 116.793 45.3179 116.732 45.3754C116.672 45.433 116.593 45.4625 116.496 45.4625H113.609V45.4578Z" fill="#7F777B"/>
<path id="Vector_24" d="M121.205 45.5232C120.933 45.5232 120.672 45.4796 120.426 45.3941C120.179 45.3086 119.964 45.1888 119.782 45.0349C119.598 44.881 119.465 44.7022 119.38 44.5016C119.337 44.4114 119.338 44.3274 119.383 44.2512C119.428 44.1735 119.503 44.1253 119.61 44.1035C119.687 44.0864 119.763 44.0989 119.837 44.1393C119.912 44.1797 119.969 44.2419 120.006 44.3228C120.057 44.43 120.142 44.528 120.258 44.6182C120.374 44.7084 120.516 44.7815 120.683 44.8374C120.85 44.8934 121.023 44.9214 121.207 44.9214C121.411 44.9214 121.599 44.8888 121.772 44.825C121.946 44.7612 122.085 44.668 122.191 44.5451C122.298 44.4223 122.35 44.2715 122.35 44.0926C122.35 43.8656 122.262 43.6619 122.085 43.4816C121.908 43.3012 121.618 43.1908 121.213 43.1472C120.684 43.0959 120.27 42.9389 119.967 42.6777C119.664 42.4164 119.514 42.093 119.514 41.7074C119.514 41.4244 119.593 41.185 119.751 40.9875C119.908 40.79 120.122 40.6407 120.392 40.5381C120.663 40.4355 120.964 40.3842 121.296 40.3842C121.556 40.3842 121.783 40.4199 121.976 40.493C122.17 40.5661 122.34 40.6672 122.485 40.7947C122.63 40.9222 122.755 41.0761 122.862 41.2503C122.922 41.3451 122.946 41.4337 122.935 41.5177C122.924 41.6017 122.882 41.667 122.81 41.7136C122.729 41.7649 122.641 41.7758 122.548 41.7463C122.454 41.7167 122.385 41.6608 122.338 41.5799C122.27 41.4555 122.187 41.3513 122.089 41.2643C121.992 41.1787 121.876 41.1119 121.745 41.0621C121.613 41.0124 121.457 40.9875 121.278 40.9875C120.963 40.9828 120.698 41.0419 120.485 41.1647C120.272 41.2876 120.165 41.4742 120.165 41.7276C120.165 41.8567 120.197 41.9795 120.264 42.0977C120.33 42.2159 120.451 42.3169 120.629 42.4024C120.805 42.488 121.06 42.5486 121.392 42.5828C121.899 42.6341 122.293 42.7896 122.578 43.0493C122.861 43.309 123.003 43.6495 123.003 44.074C123.003 44.3181 122.953 44.5296 122.853 44.7099C122.752 44.8903 122.618 45.0411 122.451 45.1624C122.282 45.2853 122.091 45.3754 121.876 45.4361C121.661 45.4967 121.439 45.5263 121.208 45.5263L121.205 45.5232Z" fill="#7F777B"/>
<path id="Vector_25" d="M126.323 45.5232C125.947 45.5232 125.606 45.4594 125.293 45.3335C124.981 45.2075 124.715 45.0287 124.491 44.8001C124.267 44.5715 124.094 44.2994 123.97 43.9838C123.847 43.6681 123.785 43.323 123.785 42.9451C123.785 42.5673 123.847 42.2236 123.97 41.9111C124.094 41.5986 124.267 41.328 124.491 41.0979C124.715 40.8693 124.983 40.6905 125.293 40.5645C125.604 40.4386 125.947 40.3748 126.323 40.3748C126.698 40.3748 127.04 40.4386 127.347 40.5645C127.657 40.6905 127.924 40.8693 128.15 41.0979C128.375 41.3264 128.55 41.5986 128.674 41.9111C128.797 42.2236 128.859 42.5688 128.859 42.9451C128.859 43.3214 128.797 43.6681 128.674 43.9838C128.55 44.2994 128.375 44.5715 128.15 44.8001C127.924 45.0287 127.657 45.2075 127.347 45.3335C127.038 45.4594 126.697 45.5232 126.323 45.5232ZM126.323 44.9183C126.599 44.9183 126.854 44.8685 127.086 44.7675C127.318 44.6664 127.519 44.528 127.691 44.3492C127.861 44.1719 127.992 43.962 128.083 43.7226C128.174 43.4831 128.221 43.2234 128.221 42.9451C128.221 42.6668 128.174 42.4071 128.083 42.1677C127.992 41.9282 127.861 41.7183 127.691 41.541C127.521 41.3638 127.32 41.2254 127.086 41.1259C126.854 41.0279 126.599 40.9781 126.323 40.9781C126.046 40.9781 125.791 41.0279 125.559 41.1259C125.327 41.2238 125.126 41.3622 124.958 41.541C124.789 41.7183 124.658 41.9282 124.565 42.1677C124.471 42.4071 124.425 42.6668 124.425 42.9451C124.425 43.2234 124.471 43.4831 124.565 43.7226C124.66 43.962 124.789 44.1719 124.958 44.3492C125.126 44.5265 125.326 44.6664 125.559 44.7675C125.791 44.8685 126.046 44.9183 126.323 44.9183Z" fill="#7F777B"/>
<path id="Vector_26" d="M130.225 45.4578C130.131 45.4578 130.054 45.4252 129.992 45.3614C129.93 45.2977 129.899 45.2184 129.899 45.1235V40.7729C129.899 40.678 129.932 40.5987 129.995 40.535C130.058 40.4712 130.136 40.4386 130.225 40.4386C130.32 40.4386 130.399 40.4712 130.462 40.535C130.525 40.5987 130.558 40.678 130.558 40.7729V44.7892H132.87C132.964 44.7892 133.043 44.8219 133.106 44.8856C133.17 44.9494 133.202 45.0287 133.202 45.1235C133.202 45.2184 133.17 45.2977 133.106 45.3614C133.043 45.4252 132.964 45.4578 132.87 45.4578H130.225Z" fill="#7F777B"/>
<path id="Vector_27" d="M136.091 45.562C135.681 45.562 135.32 45.4858 135.004 45.3335C134.689 45.1811 134.443 44.9696 134.267 44.7006C134.091 44.4301 134.003 44.1222 134.003 43.7754V40.7745C134.003 40.6765 134.035 40.5956 134.099 40.5334C134.162 40.4712 134.241 40.4401 134.335 40.4401C134.429 40.4401 134.513 40.4712 134.575 40.5334C134.637 40.5956 134.667 40.6765 134.667 40.7745V43.7754C134.667 44.0071 134.728 44.2108 134.85 44.3896C134.972 44.5669 135.139 44.7068 135.355 44.8079C135.572 44.909 135.816 44.9587 136.093 44.9587C136.369 44.9587 136.598 44.909 136.805 44.8079C137.012 44.7068 137.173 44.5684 137.29 44.3896C137.408 44.2124 137.467 44.0071 137.467 43.7754V40.7745C137.467 40.6765 137.499 40.5956 137.562 40.5334C137.626 40.4712 137.705 40.4401 137.799 40.4401C137.893 40.4401 137.975 40.4712 138.035 40.5334C138.096 40.5956 138.125 40.6765 138.125 40.7745V43.7754C138.125 44.1222 138.038 44.4316 137.867 44.7006C137.694 44.9712 137.454 45.1811 137.148 45.3335C136.842 45.4858 136.49 45.562 136.094 45.562H136.091Z" fill="#7F777B"/>
<path id="Vector_28" d="M139.164 41.0559C139.074 41.0559 139.001 41.0263 138.943 40.9688C138.884 40.9113 138.856 40.8366 138.856 40.7465C138.856 40.6563 138.885 40.5832 138.943 40.5241C139 40.4666 139.074 40.437 139.164 40.437H142.581C142.671 40.437 142.743 40.4666 142.802 40.5241C142.859 40.5816 142.889 40.6563 142.889 40.7465C142.889 40.8366 142.859 40.9097 142.802 40.9688C142.745 41.0279 142.671 41.0559 142.581 41.0559H139.164ZM140.876 45.4578C140.782 45.4578 140.703 45.4252 140.64 45.3614C140.576 45.2977 140.544 45.2184 140.544 45.1235V40.4386H141.208V45.1235C141.208 45.2184 141.176 45.2977 141.113 45.3614C141.049 45.4252 140.97 45.4578 140.876 45.4578Z" fill="#7F777B"/>
<path id="Vector_29" d="M143.955 45.4578C143.861 45.4578 143.782 45.4252 143.719 45.3614C143.655 45.2977 143.623 45.2184 143.623 45.1235V40.7729C143.623 40.6749 143.655 40.5941 143.719 40.5319C143.782 40.4697 143.861 40.4386 143.955 40.4386C144.049 40.4386 144.133 40.4697 144.195 40.5319C144.256 40.5941 144.287 40.6749 144.287 40.7729V45.1235C144.287 45.2184 144.256 45.2977 144.195 45.3614C144.133 45.4252 144.052 45.4578 143.955 45.4578Z" fill="#7F777B"/>
<path id="Vector_30" d="M147.872 45.5232C147.496 45.5232 147.154 45.4594 146.842 45.3335C146.53 45.2075 146.264 45.0287 146.04 44.8001C145.816 44.5715 145.643 44.2994 145.519 43.9838C145.396 43.6681 145.334 43.323 145.334 42.9451C145.334 42.5673 145.396 42.2236 145.519 41.9111C145.643 41.5986 145.816 41.328 146.04 41.0979C146.264 40.8693 146.532 40.6905 146.842 40.5645C147.153 40.4386 147.496 40.3748 147.872 40.3748C148.247 40.3748 148.589 40.4386 148.896 40.5645C149.205 40.6905 149.473 40.8693 149.699 41.0979C149.924 41.3264 150.099 41.5986 150.223 41.9111C150.346 42.2236 150.408 42.5688 150.408 42.9451C150.408 43.3214 150.346 43.6681 150.223 43.9838C150.099 44.2994 149.924 44.5715 149.699 44.8001C149.473 45.0287 149.205 45.2075 148.896 45.3335C148.587 45.4594 148.246 45.5232 147.872 45.5232ZM147.872 44.9183C148.148 44.9183 148.403 44.8685 148.635 44.7675C148.867 44.6664 149.068 44.528 149.24 44.3492C149.41 44.1719 149.541 43.962 149.632 43.7226C149.723 43.4831 149.77 43.2234 149.77 42.9451C149.77 42.6668 149.723 42.4071 149.632 42.1677C149.541 41.9282 149.41 41.7183 149.24 41.541C149.069 41.3638 148.869 41.2254 148.635 41.1259C148.403 41.0279 148.148 40.9781 147.872 40.9781C147.595 40.9781 147.34 41.0279 147.108 41.1259C146.876 41.2238 146.675 41.3622 146.507 41.541C146.338 41.7183 146.207 41.9282 146.114 42.1677C146.02 42.4071 145.974 42.6668 145.974 42.9451C145.974 43.2234 146.02 43.4831 146.114 43.7226C146.209 43.962 146.338 44.1719 146.507 44.3492C146.675 44.5265 146.875 44.6664 147.108 44.7675C147.34 44.8685 147.595 44.9183 147.872 44.9183Z" fill="#7F777B"/>
<path id="Vector_31" d="M151.774 45.4578C151.68 45.4578 151.603 45.4252 151.541 45.3614C151.479 45.2977 151.448 45.2184 151.448 45.1235V40.7729C151.448 40.6749 151.479 40.5941 151.541 40.5319C151.603 40.4697 151.68 40.4386 151.774 40.4386C151.876 40.4386 151.961 40.479 152.029 40.5614L154.815 44.2885V40.7729C154.815 40.6749 154.847 40.5941 154.91 40.5319C154.974 40.4697 155.053 40.4386 155.147 40.4386C155.241 40.4386 155.323 40.4697 155.383 40.5319C155.444 40.5941 155.473 40.6749 155.473 40.7729V45.1235C155.473 45.2184 155.444 45.2977 155.383 45.3614C155.323 45.4252 155.244 45.4578 155.147 45.4578C155.104 45.4578 155.059 45.4485 155.009 45.4283C154.96 45.4096 154.921 45.3801 154.892 45.3412L152.107 41.6141V45.1235C152.107 45.2184 152.076 45.2977 152.014 45.3614C151.952 45.4252 151.872 45.4578 151.774 45.4578Z" fill="#7F777B"/>
</g>
</g>
<defs>
<clipPath id="clip0_117_161">
<rect width="156" height="73" fill="white"/>
</clipPath>
</defs>
</svg>
